<svg width="24" height="32" viewBox="0 0 24 32" fill="none" xmlns="http://www.w3.org/2000/svg">
<path d="M7.05606 12.8556L10.9111 10.9544C11.7083 10.5613 12.6215 11.2166 12.5042 12.0977L12.0951 15.173C12.0695 15.3655 12.0948 15.5614 12.1684 15.7411L14.0762 20.3944C14.3254 21.0024 13.9956 21.6928 13.3659 21.8808L9.25444 23.1087C8.61483 23.2998 7.95232 22.8878 7.84073 22.2297L6.45192 14.0381C6.3698 13.5537 6.61545 13.0729 7.05606 12.8556Z" fill="#0076DE"/>
<circle cx="14.1694" cy="6.66805" r="6.66793" fill="#1290FF"/>
<path d="M12.8808 24.1723C13.3872 24.0102 13.7078 23.5121 13.6457 22.9841L13.4105 20.9849C13.3132 20.1575 14.1271 19.5212 14.9066 19.8153L19.6506 21.6054C20.1711 21.8019 20.4662 22.353 20.3411 22.8951L19.4096 26.9317C19.3452 27.2106 19.1757 27.4539 18.9364 27.6109L15.676 29.7505C15.2109 30.0557 14.5919 29.9701 14.2272 29.5501L11.3854 26.278C10.8622 25.6754 11.1257 24.7341 11.8857 24.4908L12.8808 24.1723Z" fill="#0076DE"/>
<path d="M11.4225 7.90971C11.5799 7.38347 12.098 7.05109 12.6419 7.12754L17.2559 7.77599C17.8409 7.8582 18.2593 8.38366 18.2084 8.97218L17.1744 20.9382C17.1247 21.5128 16.6439 21.9539 16.0672 21.9539L8.71582 21.9539C7.97183 21.9539 7.43795 21.2371 7.65107 20.5242L11.4225 7.90971Z" fill="#1290FF"/>
<path d="M7.21557 20.5602C7.47514 20.2203 7.90679 20.0594 8.32554 20.1467L12.7433 21.067C13.5015 21.225 13.8697 22.0907 13.4574 22.7464L9.21743 29.4912C9.01405 29.8147 8.65871 30.0111 8.27657 30.0111L2.24671 30.0111C1.32653 30.0111 0.805002 28.9567 1.3634 28.2254L7.21557 20.5602Z" fill="#1290FF"/>
<path d="M10.6577 18.7921L12.1771 14.4146C12.4439 13.6459 13.4191 13.4151 14.0021 13.9826L14.6389 14.6025C14.833 14.7913 14.9514 15.0445 14.9719 15.3145L15.1177 17.2308C15.1543 17.7109 15.4958 18.1128 15.9637 18.2264L20.6678 19.3685C21.3788 19.5411 21.7319 20.3418 21.3798 20.9832L19.423 24.5479C19.1017 25.1331 18.3408 25.3051 17.7992 24.9149L11.0579 20.0582C10.6593 19.771 10.4966 19.2562 10.6577 18.7921Z" fill="#4CABFF"/>
<circle cx="17.6423" cy="7.50153" r="1.66698" fill="white"/>
</svg>
