<svg width="31" height="34" viewBox="0 0 31 34" fill="none" xmlns="http://www.w3.org/2000/svg">
<path d="M9.41503 12.8338L13.4045 13.3542C14.2715 13.4673 14.6744 14.4911 14.1169 15.1647L12.3992 17.2402C12.1881 17.4953 11.8742 17.643 11.5431 17.643L9.54073 17.643C9.20494 17.643 8.88716 17.7948 8.67618 18.056L6.78244 20.4007C6.40008 20.8741 5.70811 20.9519 5.23012 20.5753L2.72803 18.6039C2.12975 18.1326 2.17221 17.2127 2.81136 16.7984L8.66685 13.0033C8.88823 12.8598 9.15343 12.7997 9.41503 12.8338Z" fill="#0076DE"/>
<circle cx="17.6224" cy="6.66809" r="6.66793" fill="#1290FF"/>
<path d="M18.8341 25.6182C18.7366 25.3203 18.5179 25.0774 18.2318 24.9494L16.008 23.9545C15.2475 23.6142 15.1179 22.5892 15.7698 22.0705L19.7374 18.9132C20.1727 18.5667 20.7972 18.5956 21.1987 18.9808L24.3341 21.9884C24.4501 22.0996 24.5405 22.2347 24.5993 22.3844L26.8843 28.2069C27.1404 28.8594 26.7358 29.5831 26.0458 29.7067L21.4491 30.5304C20.9035 30.6282 20.3693 30.309 20.1969 29.7822L18.8341 25.6182Z" fill="#0076DE"/>
<path d="M14.8757 8.18805C15.033 7.66181 15.5512 7.32944 16.0951 7.40588L20.7091 8.05433C21.2941 8.13655 21.7125 8.66201 21.6616 9.25052L20.6276 21.2166C20.5779 21.7911 20.097 22.2322 19.5204 22.2322L12.169 22.2322C11.425 22.2322 10.8911 21.5154 11.1042 20.8026L14.8757 8.18805Z" fill="#1290FF"/>
<path d="M10.977 20.8534C11.0544 20.8432 11.1326 20.8412 11.2104 20.8474L17.0193 21.3112C18.1776 21.4037 18.4349 22.9874 17.3654 23.4418L8.98988 27.0005C8.6543 27.1431 8.27013 27.112 7.96185 26.9173L3.13358 23.8678C2.25449 23.3126 2.55118 21.962 3.58204 21.8264L10.977 20.8534Z" fill="#1290FF"/>
<path d="M18.5999 19.5606L17.2408 15.1307C17.0021 14.3528 17.6528 13.5907 18.4584 13.7043L19.3384 13.8284C19.6065 13.8662 19.8516 14.0006 20.0277 14.2064L21.277 15.6666C21.59 16.0325 22.103 16.1551 22.5477 15.9705L27.0183 14.1139C27.694 13.8333 28.4518 14.271 28.5465 14.9965L29.0726 19.0288C29.159 19.6908 28.6464 20.2789 27.9789 20.2839L19.6706 20.3459C19.1794 20.3496 18.744 20.0303 18.5999 19.5606Z" fill="#4CABFF"/>
<circle cx="21.1151" cy="6.94596" r="1.66698" fill="white"/>
</svg>
