<svg width="21" height="31" viewBox="0 0 21 31" fill="none" xmlns="http://www.w3.org/2000/svg">
<path d="M7.71704 15.1672L8.73956 10.9923C8.95101 10.129 10.0401 9.8509 10.6395 10.5072L12.7318 12.7978C12.8628 12.9412 13.0291 13.0478 13.2141 13.1069L18.0047 14.6377C18.6306 14.8377 18.9473 15.5343 18.6864 16.1374L16.9834 20.0759C16.7185 20.6886 15.977 20.9311 15.4011 20.5934L8.23425 16.3902C7.81048 16.1417 7.60017 15.6444 7.71704 15.1672Z" fill="#0076DE"/>
<circle cx="10.9742" cy="6.66797" r="6.66793" fill="#1290FF"/>
<path d="M8.88901 19.4933C9.07232 19.4639 9.2601 19.4808 9.43519 19.5426L12.926 20.7746C13.4716 20.9671 13.7781 21.5459 13.6309 22.1054L12.7033 25.6302C12.583 26.0876 12.1863 26.4187 11.7148 26.4553L1.47607 27.2517C0.737773 27.3091 0.150895 26.642 0.30193 25.9171L1.23304 21.4478C1.32703 20.9966 1.68969 20.6503 2.14467 20.5772L8.88901 19.4933Z" fill="#0076DE"/>
<path d="M8.22743 7.07572C8.38476 6.54948 8.90293 6.21711 9.44685 6.29355L14.0608 6.942C14.6458 7.02421 15.0642 7.54968 15.0134 8.13819L13.9793 20.1043C13.9296 20.6788 13.4488 21.1199 12.8721 21.1199L5.52073 21.1199C4.77674 21.1199 4.24286 20.4031 4.45598 19.6902L8.22743 7.07572Z" fill="#1290FF"/>
<path d="M4.14059 20.1245C4.31373 19.5822 4.86864 19.2584 5.42592 19.3745L10.1061 20.3496C10.6744 20.468 11.0559 21.0039 10.9816 21.5797L10.1269 28.2082C10.0554 28.7624 9.58353 29.1774 9.02471 29.1774L2.77163 29.1774C2.01902 29.1774 1.48405 28.445 1.71296 27.7281L4.14059 20.1245Z" fill="#1290FF"/>
<path d="M2.83357 15.0688L7.03029 13.1044C7.76718 12.7595 8.61274 13.2973 8.61274 14.1109V14.9996C8.61274 15.2704 8.51388 15.5318 8.33473 15.7349L7.06325 17.1759C6.7447 17.5369 6.69485 18.062 6.9398 18.4765L9.40244 22.6441C9.77467 23.274 9.44713 24.0855 8.74194 24.2806L4.82259 25.3646C4.17921 25.5426 3.52523 25.1172 3.42708 24.4569L2.20546 16.2387C2.13322 15.7528 2.38862 15.2771 2.83357 15.0688Z" fill="#4CABFF"/>
<circle cx="13.7763" cy="7.66597" r="1.66698" fill="white"/>
</svg>
