<svg width="29" height="34" viewBox="0 0 29 34" fill="none" xmlns="http://www.w3.org/2000/svg">
<path d="M17.4178 19.5606L16.0587 15.1307C15.8201 14.3528 16.4707 13.5907 17.2763 13.7043L18.3344 13.8535C18.4913 13.8756 18.6416 13.931 18.7752 14.0159L20.3447 15.0131C20.613 15.1836 20.9414 15.231 21.247 15.1434L24.646 14.1688C25.2014 14.0095 25.7863 14.3025 25.9913 14.8427L27.4861 18.7808C27.7608 19.5047 27.2296 20.2807 26.4554 20.2865L18.4886 20.3459C17.9973 20.3496 17.5619 20.0303 17.4178 19.5606Z" fill="#0076DE"/>
<circle cx="16.4404" cy="6.66809" r="6.66793" fill="#1290FF"/>
<path d="M13.6935 8.18756C13.8508 7.66132 14.369 7.32895 14.9129 7.40539L19.5269 8.05384C20.1118 8.13606 20.5303 8.66152 20.4794 9.25003L19.4453 21.2161C19.3957 21.7906 18.9148 22.2317 18.3381 22.2317L10.9868 22.2317C10.2428 22.2317 9.70891 21.5149 9.92203 20.8021L13.6935 8.18756Z" fill="#1290FF"/>
<path d="M9.50886 21.4522C9.75292 21.0795 10.196 20.8885 10.6345 20.9671L16.6902 22.0516C17.6484 22.2233 17.9386 23.4565 17.1575 24.0373L11.048 28.5806C10.7807 28.7794 10.4384 28.8478 10.1153 28.767L4.4747 27.3568C3.88147 27.2085 3.5195 26.6088 3.6647 26.0148L4.61874 22.1119C4.78181 21.4448 5.50484 21.0838 6.13605 21.3543L7.96303 22.1373C8.45863 22.3497 9.03519 22.1757 9.33055 21.7246L9.50886 21.4522Z" fill="#0076DE"/>
<path d="M8.2207 11.6583L12.6645 13.1074C13.41 13.3505 13.6761 14.2684 13.1761 14.8725L11.2171 17.2396C11.006 17.4947 10.6921 17.6424 10.361 17.6424L8.17234 17.6424C7.94784 17.6424 7.72861 17.7104 7.5435 17.8374L5.58717 19.18C5.13068 19.4933 4.51322 19.4228 4.13911 19.0147L1.2749 15.89C0.754987 15.3228 0.954841 14.4117 1.66441 14.1142L7.44645 11.69C7.69238 11.5869 7.96717 11.5756 8.2207 11.6583Z" fill="#4CABFF"/>
<path d="M17.6402 25.5815C17.5496 25.3046 17.3539 25.0745 17.0953 24.9404L12.8788 22.7552C11.7852 22.1884 12.2887 20.5279 13.5129 20.664L18.5572 21.2244C18.7311 21.2438 18.8979 21.3039 19.0442 21.3999L23.0373 24.0203C23.1882 24.1193 23.3126 24.2536 23.4 24.4114L25.4456 28.1088C25.8142 28.7751 25.4187 29.6064 24.6692 29.7407L20.2669 30.5296C19.7213 30.6273 19.1871 30.3081 19.0147 29.7813L17.6402 25.5815Z" fill="#1290FF"/>
<circle cx="19.6552" cy="7.22377" r="1.66698" fill="white"/>
</svg>
