<svg width="20" height="33" viewBox="0 0 20 33" fill="none" xmlns="http://www.w3.org/2000/svg">
<path d="M8.42737 17.7273L6.78919 14.0527C6.43316 13.2541 7.09624 12.3761 7.9618 12.5001L10.6286 12.8821C10.9564 12.929 11.2462 13.1197 11.419 13.4022L12.464 15.1102C12.6393 15.3967 12.9346 15.5885 13.2675 15.6321L16.2559 16.0239C16.8592 16.103 17.2868 16.6526 17.215 17.2569L16.8392 20.42C16.7494 21.1764 15.9426 21.6202 15.2556 21.2912L8.96235 18.2771C8.72442 18.1631 8.53479 17.9682 8.42737 17.7273Z" fill="#0076DE"/>
<circle cx="9.84306" cy="6.66809" r="6.66793" fill="#1290FF"/>
<path d="M6.00835 24.788C6.72334 24.5008 6.93616 23.5908 6.42273 23.0163L5.48787 21.9702C4.94284 21.3603 5.22115 20.3905 6.00665 20.1624L10.9362 18.7311C11.4705 18.576 12.0372 18.8399 12.2623 19.3487L13.8798 23.0039C14.0295 23.3421 14.0011 23.7325 13.8041 24.0455L10.6053 29.129C10.3326 29.5624 9.79905 29.7534 9.31327 29.5915L3.84389 27.7683C2.86253 27.4412 2.82116 26.0684 3.78104 25.6828L6.00835 24.788Z" fill="#0076DE"/>
<path d="M7.09612 8.18756C7.25346 7.66132 7.77163 7.32895 8.31554 7.40539L12.9295 8.05384C13.5145 8.13606 13.9329 8.66152 13.8821 9.25003L12.848 21.2161C12.7983 21.7906 12.3175 22.2317 11.7408 22.2317L4.38943 22.2317C3.64543 22.2317 3.11156 21.5149 3.32468 20.8021L7.09612 8.18756Z" fill="#1290FF"/>
<path d="M3.61185 23.9032C3.68453 23.613 3.63711 23.3057 3.4803 23.0508L3.38542 22.8966C3.11194 22.4522 3.18452 21.8774 3.55989 21.5149L8.54084 16.7044C9.17399 16.093 10.2329 16.4252 10.4032 17.2888L11.3042 21.858C11.3402 22.0402 11.3299 22.2284 11.2743 22.4056L9.13473 29.2271C8.98939 29.6905 8.55999 30.0059 8.07434 30.0059L3.50756 30.0059C2.78438 30.0058 2.25385 29.3261 2.42952 28.6246L3.61185 23.9032Z" fill="#1290FF"/>
<path d="M1.74061 17.2751L4.8464 13.8363C5.39174 13.2325 6.37973 13.4001 6.69541 14.15L7.04022 14.969C7.14527 15.2186 7.1556 15.4979 7.06926 15.7546L6.45648 17.576C6.30295 18.0324 6.46075 18.5357 6.84733 18.8227L10.734 21.7083C11.3215 22.1445 11.3345 23.0195 10.7602 23.4728L7.56848 25.9927C7.04454 26.4063 6.27675 26.268 5.93011 25.6975L1.61561 18.5971C1.3605 18.1772 1.41132 17.6397 1.74061 17.2751Z" fill="#4CABFF"/>
<circle cx="13.3358" cy="6.94596" r="1.66698" fill="white"/>
</svg>
