<svg width="24" height="34" viewBox="0 0 24 34" fill="none" xmlns="http://www.w3.org/2000/svg">
<path d="M6.48448 14.1616L9.87622 11.9976C10.6134 11.5273 11.5798 12.0532 11.5852 12.9276L11.6021 15.6216C11.6042 15.9527 11.4585 16.2675 11.2047 16.4802L9.67009 17.7665C9.41275 17.9822 9.26674 18.3027 9.27284 18.6384L9.32764 21.6518C9.33871 22.2602 8.8584 22.7644 8.25015 22.7828L5.06622 22.8793C4.30491 22.9023 3.74654 22.1701 3.97027 21.442L6.01992 14.772C6.09741 14.5198 6.26208 14.3035 6.48448 14.1616Z" fill="#0076DE"/>
<circle cx="13.6384" cy="6.66799" r="6.66793" fill="#1290FF"/>
<path d="M13.924 25.5093C14.2977 24.9488 14.0907 24.1873 13.4846 23.8931L11.9434 23.1449C11.2076 22.7878 11.0967 21.7849 11.7367 21.2756L15.7532 18.0793C16.1886 17.7329 16.813 17.7618 17.2146 18.1469L20.0711 20.887C20.3532 21.1577 20.4724 21.5567 20.3849 21.9378L18.8573 28.5877C18.7414 29.0925 18.2921 29.4503 17.7742 29.4503L13.3732 29.4503C12.4856 29.4503 11.9562 28.4611 12.4485 27.7225L13.924 25.5093Z" fill="#0076DE"/>
<path d="M10.8916 7.35355C11.0489 6.82731 11.5671 6.49494 12.111 6.57138L16.725 7.21984C17.31 7.30205 17.7284 7.82751 17.6775 8.41602L16.6435 20.3821C16.5938 20.9566 16.1129 21.3977 15.5363 21.3977L8.18491 21.3977C7.44091 21.3977 6.90704 20.6809 7.12015 19.9681L10.8916 7.35355Z" fill="#1290FF"/>
<path d="M6.12504 21.5178C6.49164 21.44 6.79435 21.1827 6.93018 20.8334L7.38642 19.6603C7.56373 19.2044 8.01832 18.918 8.50611 18.955L15.0511 19.4507C15.8771 19.5133 16.3468 20.425 15.9181 21.1339L13.4894 25.1506C13.3312 25.4123 13.0722 25.5972 12.7733 25.6618L4.11556 27.5339C3.48991 27.6692 2.87962 27.2493 2.78229 26.6166L2.288 23.4038C2.19837 22.8212 2.57918 22.27 3.15578 22.1477L6.12504 21.5178Z" fill="#1290FF"/>
<path d="M10.8371 18.5436L11.8593 14.0241C12.0387 13.2305 12.9821 12.8924 13.6248 13.3914L14.3267 13.9364C14.5406 14.1025 14.6865 14.3409 14.737 14.6069L15.0954 16.495C15.1852 16.968 15.5694 17.3294 16.047 17.3902L20.8491 18.0009C21.575 18.0932 22.0151 18.8496 21.7367 19.5262L20.1893 23.2868C19.9353 23.9041 19.1982 24.1598 18.6165 23.8324L11.376 19.7572C10.9479 19.5163 10.7288 19.0228 10.8371 18.5436Z" fill="#4CABFF"/>
<circle cx="17.2255" cy="6.94538" r="1.66698" fill="white"/>
</svg>
